<mxfile host="app.diagrams.net" modified="2020-10-13T09:35:04.210Z" agent="5.0 (Windows NT 10.0; Win64; x64) AppleWebKit/537.36 (KHTML, like Gecko) Chrome/85.0.4183.121 Safari/537.36" etag="qvNmnCW_ZsJ6iSiAb0cF" version="13.3.9" type="github">
  <diagram id="ToanAmvhAh_Zf448w_O6" name="Page-1">
    <mxGraphModel dx="1038" dy="548" grid="1" gridSize="10" guides="1" tooltips="1" connect="1" arrows="1" fold="1" page="1" pageScale="1" pageWidth="827" pageHeight="1169" math="0" shadow="0">
      <root>
        <mxCell id="0" />
        <mxCell id="1" parent="0" />
        <mxCell id="MW7hc3G7Tkg9zOo1a2e1-1" value="&lt;font style=&quot;font-size: 19px&quot;&gt;Android Application&lt;/font&gt;" style="html=1;labelPosition=center;verticalLabelPosition=top;align=center;verticalAlign=bottom;" vertex="1" parent="1">
          <mxGeometry x="310" y="50" width="340" height="740" as="geometry" />
        </mxCell>
        <mxCell id="MW7hc3G7Tkg9zOo1a2e1-2" value="Actor" style="shape=umlActor;verticalLabelPosition=bottom;verticalAlign=top;html=1;" vertex="1" parent="1">
          <mxGeometry x="110" y="407" width="30" height="60" as="geometry" />
        </mxCell>
        <UserObject label="Health Management" id="MW7hc3G7Tkg9zOo1a2e1-3">
          <mxCell style="shape=folder;fontStyle=1;spacingTop=10;tabWidth=130;tabHeight=40;tabPosition=left;html=1;labelPosition=center;verticalLabelPosition=middle;align=left;verticalAlign=top;labelBorderColor=none;spacingLeft=5;" vertex="1" parent="1">
            <mxGeometry x="320" y="60" width="320" height="220" as="geometry" />
          </mxCell>
        </UserObject>
        <mxCell id="MW7hc3G7Tkg9zOo1a2e1-4" value="See, which nutrients are missing" style="ellipse;whiteSpace=wrap;html=1;align=center;fillColor=#ffe6cc;strokeColor=#d79b00;" vertex="1" parent="1">
          <mxGeometry x="330" y="110" width="140" height="70" as="geometry" />
        </mxCell>
        <mxCell id="MW7hc3G7Tkg9zOo1a2e1-5" style="edgeStyle=orthogonalEdgeStyle;rounded=0;orthogonalLoop=1;jettySize=auto;html=1;exitX=0;exitY=0;exitDx=320;exitDy=135;exitPerimeter=0;" edge="1" parent="1" source="MW7hc3G7Tkg9zOo1a2e1-6" target="MW7hc3G7Tkg9zOo1a2e1-15">
          <mxGeometry relative="1" as="geometry" />
        </mxCell>
        <UserObject label="Recipes" id="MW7hc3G7Tkg9zOo1a2e1-6">
          <mxCell style="shape=folder;fontStyle=1;spacingTop=10;tabWidth=130;tabHeight=40;tabPosition=left;html=1;labelPosition=center;verticalLabelPosition=middle;align=left;verticalAlign=top;labelBorderColor=none;spacingLeft=5;" vertex="1" parent="1">
            <mxGeometry x="320" y="300" width="320" height="230" as="geometry" />
          </mxCell>
        </UserObject>
        <mxCell id="MW7hc3G7Tkg9zOo1a2e1-7" value="Look at tasty recipes" style="ellipse;whiteSpace=wrap;html=1;align=center;fillColor=#ffe6cc;strokeColor=#d79b00;" vertex="1" parent="1">
          <mxGeometry x="330" y="350" width="140" height="70" as="geometry" />
        </mxCell>
        <mxCell id="MW7hc3G7Tkg9zOo1a2e1-8" value="Keep track of, how much you have been drinking over the day" style="ellipse;whiteSpace=wrap;html=1;align=center;fillColor=#d5e8d4;strokeColor=#82b366;" vertex="1" parent="1">
          <mxGeometry x="330" y="190" width="200" height="90" as="geometry" />
        </mxCell>
        <mxCell id="MW7hc3G7Tkg9zOo1a2e1-9" value="Look at statistics, how you improved your health" style="ellipse;whiteSpace=wrap;html=1;align=center;fillColor=#ffe6cc;strokeColor=#d79b00;" vertex="1" parent="1">
          <mxGeometry x="490" y="110" width="140" height="100" as="geometry" />
        </mxCell>
        <mxCell id="MW7hc3G7Tkg9zOo1a2e1-10" value="Get recommendations, what you can eat next" style="ellipse;whiteSpace=wrap;html=1;align=center;fillColor=#ffe6cc;strokeColor=#d79b00;" vertex="1" parent="1">
          <mxGeometry x="330" y="440" width="140" height="70" as="geometry" />
        </mxCell>
        <mxCell id="MW7hc3G7Tkg9zOo1a2e1-11" value="Like / dislike dishes&lt;br&gt;/ save to the favorites" style="ellipse;whiteSpace=wrap;html=1;align=center;fillColor=#ffe6cc;strokeColor=#d79b00;" vertex="1" parent="1">
          <mxGeometry x="490" y="350" width="140" height="70" as="geometry" />
        </mxCell>
        <UserObject label="Settings" id="MW7hc3G7Tkg9zOo1a2e1-12">
          <mxCell style="shape=folder;fontStyle=1;spacingTop=10;tabWidth=130;tabHeight=40;tabPosition=left;html=1;labelPosition=center;verticalLabelPosition=middle;align=left;verticalAlign=top;labelBorderColor=none;spacingLeft=5;" vertex="1" parent="1">
            <mxGeometry x="320" y="550" width="320" height="230" as="geometry" />
          </mxCell>
        </UserObject>
        <mxCell id="MW7hc3G7Tkg9zOo1a2e1-13" value="Calculate the daily calory and nutrient demand" style="ellipse;whiteSpace=wrap;html=1;align=center;fillColor=#d5e8d4;strokeColor=#82b366;" vertex="1" parent="1">
          <mxGeometry x="330" y="600" width="140" height="70" as="geometry" />
        </mxCell>
        <mxCell id="MW7hc3G7Tkg9zOo1a2e1-14" style="edgeStyle=orthogonalEdgeStyle;rounded=0;orthogonalLoop=1;jettySize=auto;html=1;entryX=0;entryY=0;entryDx=320;entryDy=135;entryPerimeter=0;" edge="1" parent="1" source="MW7hc3G7Tkg9zOo1a2e1-15" target="MW7hc3G7Tkg9zOo1a2e1-6">
          <mxGeometry relative="1" as="geometry" />
        </mxCell>
        <mxCell id="MW7hc3G7Tkg9zOo1a2e1-15" value="" style="aspect=fixed;html=1;points=[];align=center;image;fontSize=12;image=img/lib/azure2/app_services/App_Service_Plans.svg;gradientColor=none;" vertex="1" parent="1">
          <mxGeometry x="700" y="403" width="64" height="64" as="geometry" />
        </mxCell>
        <mxCell id="MW7hc3G7Tkg9zOo1a2e1-16" value="Create own recipes" style="ellipse;whiteSpace=wrap;html=1;align=center;fillColor=#d5e8d4;strokeColor=#82b366;" vertex="1" parent="1">
          <mxGeometry x="490" y="440" width="140" height="70" as="geometry" />
        </mxCell>
        <mxCell id="MW7hc3G7Tkg9zOo1a2e1-17" value="API" style="text;align=center;fontStyle=1;verticalAlign=middle;spacingLeft=3;spacingRight=3;strokeColor=none;rotatable=0;points=[[0,0.5],[1,0.5]];portConstraint=eastwest;" vertex="1" parent="1">
          <mxGeometry x="690" y="467" width="68" height="26" as="geometry" />
        </mxCell>
        <mxCell id="MW7hc3G7Tkg9zOo1a2e1-18" value="Set the aims you want to reach" style="ellipse;whiteSpace=wrap;html=1;align=center;fillColor=#d5e8d4;strokeColor=#82b366;" vertex="1" parent="1">
          <mxGeometry x="490" y="600" width="140" height="70" as="geometry" />
        </mxCell>
        <mxCell id="MW7hc3G7Tkg9zOo1a2e1-19" value="Set the ingredients you do not like" style="ellipse;whiteSpace=wrap;html=1;align=center;fillColor=#d5e8d4;strokeColor=#82b366;" vertex="1" parent="1">
          <mxGeometry x="330" y="680" width="140" height="70" as="geometry" />
        </mxCell>
      </root>
    </mxGraphModel>
  </diagram>
</mxfile>
